<svg width="286" height="49" viewBox="0 0 286 49" fill="none" xmlns="http://www.w3.org/2000/svg">
<path d="M39.7368 30.7902C41.4215 27.7693 42.293 24.3998 42.293 20.6236C42.293 16.7313 41.3635 13.1875 39.5044 10.0504C37.6454 6.97136 35.1473 4.47329 31.9521 2.67235C28.6988 0.929513 25.0969 0 21.1465 0C17.1379 0 13.5361 0.929514 10.3409 2.73045C7.08756 4.53139 4.58948 6.97137 2.73045 10.1085C0.871423 13.2456 0 16.7894 0 20.6236C0 24.3998 0.813333 27.7693 2.49808 30.7902C4.18283 33.8111 6.50662 36.2511 9.52754 38.1101C12.4904 39.9692 15.8599 40.9568 19.636 41.1892V48.7996H22.657V41.1892C26.375 40.9568 29.6864 39.9692 32.7073 38.1101C35.7283 36.2511 38.0521 33.8111 39.7368 30.7902ZM31.0807 35.7863C28.5245 37.413 25.6779 38.2844 22.5408 38.4587V28.0017H19.6941V38.4587C16.4989 38.2844 13.6523 37.3549 11.0961 35.7282C8.53994 34.1016 6.5647 32.0102 5.11233 29.3378C3.65997 26.7236 2.96283 23.8188 2.96283 20.6236C2.96283 17.3122 3.71808 14.2913 5.34473 11.5608C6.91329 8.8304 9.06279 6.68089 11.8513 5.11233C14.6399 3.54378 17.7189 2.73045 21.1465 2.73045C24.516 2.73045 27.595 3.54378 30.3835 5.11233C33.114 6.68089 35.2635 8.8304 36.8901 11.5608C38.4587 14.2913 39.272 17.3122 39.272 20.6236C39.272 23.8188 38.5168 26.7236 37.0644 29.3959C35.6121 32.0683 33.6369 34.1597 31.0807 35.7863Z" fill="#272B3C"/>
<path d="M71.7155 0.290527H68.7527L50.0461 40.9568H53.2414L70.205 3.54383L87.2268 40.9568H90.422L71.7155 0.290527Z" fill="#303D5E"/>
<path d="M154.98 0.290527H152.075L139.585 36.9483L126.92 0.290527H124.074L111.351 36.8902L98.9768 0.290527H95.8397L109.666 40.9568H112.803L125.468 4.47335L138.075 40.9568H141.212L154.98 0.290527Z" fill="#3A507F"/>
<path d="M182.043 0.290527H179.08L160.373 40.9568H163.568L180.532 3.54383L197.554 40.9568H200.749L182.043 0.290527Z" fill="#4362A1"/>
<path d="M234.41 26.7236C237.431 25.8522 239.813 24.3417 241.439 22.1341C243.066 19.9265 243.937 17.2542 243.937 14.0009C243.937 9.75997 242.485 6.39048 239.58 3.9505C236.675 1.51052 232.667 0.290527 227.555 0.290527H212.973V2.96288H227.555C231.854 2.96288 235.165 3.9505 237.489 5.86762C239.755 7.78475 240.916 10.5152 240.916 14.0009C240.916 17.5447 239.755 20.2751 237.489 22.1922C235.165 24.1094 231.854 25.0389 227.555 25.0389H212.973V40.9568H215.936V27.6531H227.555C228.717 27.6531 230.053 27.595 231.505 27.3627L241.207 40.9568H244.576L234.41 26.7236Z" fill="#4D75C2"/>
<path d="M286 18.997H259.683V21.6113H286V18.997ZM286 0.290527H259.683V2.96288H286V0.290527ZM259.683 38.2845V40.9568H286V38.2845H259.683Z" fill="#5687E4"/>
</svg>
